<svg id="visual" viewBox="0 0 960 540" width="960" height="540" xmlns="http://www.w3.org/2000/svg" xmlns:xlink="http://www.w3.org/1999/xlink" version="1.1"><rect x="0" y="0" width="960" height="540" fill="#a0b5e0"></rect><path d="M0 342L22.8 341.5C45.7 341 91.3 340 137 347.8C182.7 355.7 228.3 372.3 274 379.2C319.7 386 365.3 383 411.2 371.5C457 360 503 340 548.8 331.7C594.7 323.3 640.3 326.7 686 338.5C731.7 350.3 777.3 370.7 823 379.3C868.7 388 914.3 385 937.2 383.5L960 382L960 541L937.2 541C914.3 541 868.7 541 823 541C777.3 541 731.7 541 686 541C640.3 541 594.7 541 548.8 541C503 541 457 541 411.2 541C365.3 541 319.7 541 274 541C228.3 541 182.7 541 137 541C91.3 541 45.7 541 22.8 541L0 541Z" fill="#869cca"></path><path d="M0 399L22.8 403.2C45.7 407.3 91.3 415.7 137 416C182.7 416.3 228.3 408.7 274 407.8C319.7 407 365.3 413 411.2 411.2C457 409.3 503 399.7 548.8 390.7C594.7 381.7 640.3 373.3 686 379.7C731.7 386 777.3 407 823 414.7C868.7 422.3 914.3 416.7 937.2 413.8L960 411L960 541L937.2 541C914.3 541 868.7 541 823 541C777.3 541 731.7 541 686 541C640.3 541 594.7 541 548.8 541C503 541 457 541 411.2 541C365.3 541 319.7 541 274 541C228.3 541 182.7 541 137 541C91.3 541 45.7 541 22.8 541L0 541Z" fill="#91a4cf"></path><path d="M0 418L22.8 420.2C45.7 422.3 91.3 426.7 137 432.8C182.7 439 228.3 447 274 447.3C319.7 447.7 365.3 440.3 411.2 439.3C457 438.3 503 443.7 548.8 443.5C594.7 443.3 640.3 437.7 686 436.5C731.7 435.3 777.3 438.7 823 439.8C868.7 441 914.3 440 937.2 439.5L960 439L960 541L937.2 541C914.3 541 868.7 541 823 541C777.3 541 731.7 541 686 541C640.3 541 594.7 541 548.8 541C503 541 457 541 411.2 541C365.3 541 319.7 541 274 541C228.3 541 182.7 541 137 541C91.3 541 45.7 541 22.8 541L0 541Z" fill="#9badd5"></path><path d="M0 467L22.8 465.7C45.7 464.3 91.3 461.7 137 463.7C182.7 465.7 228.3 472.3 274 470.5C319.7 468.7 365.3 458.3 411.2 455C457 451.7 503 455.3 548.8 455.7C594.7 456 640.3 453 686 449.2C731.7 445.3 777.3 440.7 823 442.5C868.7 444.3 914.3 452.7 937.2 456.8L960 461L960 541L937.2 541C914.3 541 868.7 541 823 541C777.3 541 731.7 541 686 541C640.3 541 594.7 541 548.8 541C503 541 457 541 411.2 541C365.3 541 319.7 541 274 541C228.3 541 182.7 541 137 541C91.3 541 45.7 541 22.8 541L0 541Z" fill="#a5b5db"></path><path d="M0 486L22.8 488.5C45.7 491 91.3 496 137 495.2C182.7 494.3 228.3 487.7 274 485.8C319.7 484 365.3 487 411.2 492.2C457 497.3 503 504.7 548.8 504C594.7 503.3 640.3 494.7 686 494C731.7 493.3 777.3 500.7 823 502.2C868.7 503.7 914.3 499.3 937.2 497.2L960 495L960 541L937.2 541C914.3 541 868.7 541 823 541C777.3 541 731.7 541 686 541C640.3 541 594.7 541 548.8 541C503 541 457 541 411.2 541C365.3 541 319.7 541 274 541C228.3 541 182.7 541 137 541C91.3 541 45.7 541 22.8 541L0 541Z" fill="#afbee1"></path></svg>