<svg id="visual" viewBox="0 0 960 540" width="960" height="540" xmlns="http://www.w3.org/2000/svg" xmlns:xlink="http://www.w3.org/1999/xlink" version="1.1"><rect x="0" y="0" width="960" height="540" fill="#a0b5e0"></rect><path d="M900 540L890.8 527.2C881.7 514.3 863.3 488.7 862.5 463C861.7 437.3 878.3 411.7 879.3 386C880.3 360.3 865.7 334.7 866.8 308.8C868 283 885 257 889.5 231.2C894 205.3 886 179.7 880.5 154C875 128.3 872 102.7 875.7 77C879.3 51.3 889.7 25.7 894.8 12.8L900 0L960 0L960 12.8C960 25.7 960 51.3 960 77C960 102.7 960 128.3 960 154C960 179.7 960 205.3 960 231.2C960 257 960 283 960 308.8C960 334.7 960 360.3 960 386C960 411.7 960 437.3 960 463C960 488.7 960 514.3 960 527.2L960 540Z" fill="#869cca" stroke-linecap="round" stroke-linejoin="miter"></path></svg>