<svg id="visual" viewBox="0 0 960 540" width="960" height="540" xmlns="http://www.w3.org/2000/svg" xmlns:xlink="http://www.w3.org/1999/xlink" version="1.1"><rect x="0" y="0" width="960" height="540" fill="#869cca"></rect><g transform="translate(960 0)"><path d="M451.4 -781.8C587.8 -703.1 703.1 -587.8 781.8 -451.4C860.6 -315 902.8 -157.5 902.8 0C902.8 157.5 860.6 315 781.8 451.4C703.1 587.8 587.8 703.1 451.4 781.9C315 860.6 157.5 902.8 0 902.8C-157.5 902.8 -315 860.6 -451.4 781.8C-587.8 703.1 -703.1 587.8 -781.8 451.4C-860.6 315 -902.8 157.5 -902.8 0C-902.8 -157.5 -860.6 -315 -781.8 -451.4C-703.1 -587.8 -587.8 -703.1 -451.4 -781.8C-315 -860.6 -157.5 -902.8 0 -902.8C157.5 -902.8 315 -860.6 451.4 -781.8" fill="#a0b5e0"></path></g></svg>